<svg width="48" height="48" viewBox="0 0 48 48" fill="none" xmlns="http://www.w3.org/2000/svg">
<circle cx="24" cy="24" r="24" fill="white"/>
<path d="M28.6931 15.0186C26.6274 15.0186 24.8436 16.2035 23.9472 17.932C23.0507 16.2035 21.267 15.0186 19.2012 15.0186C16.2401 15.0186 13.8408 17.4509 13.8408 20.4445C13.8408 23.4381 15.6771 26.1822 18.0501 28.4363C20.4231 30.6904 23.9472 32.8376 23.9472 32.8376C23.9472 32.8376 27.357 30.7261 29.8442 28.4363C32.4971 25.9951 34.0535 23.447 34.0535 20.4445C34.0535 17.4419 31.6543 15.0186 28.6931 15.0186Z" fill="black"/>
<path d="M13.0958 39.3187C10.7825 39.3187 9.06899 38.7229 7.95518 37.7016C6.84137 36.5953 6.24163 34.8931 6.24163 32.5102V28.3399C6.24163 27.2336 5.98459 26.3825 5.47053 25.7868C4.95646 25.191 4.09969 24.9357 2.9002 24.9357H1.87207V21.7868H2.9002C3.49994 21.7868 4.01401 21.7016 4.4424 21.6165C4.87079 21.4463 5.2135 21.2761 5.47053 21.0208C5.72756 20.7655 5.89892 20.4251 6.07027 19.9995C6.15595 19.574 6.24163 19.0634 6.24163 18.5527V15.6591C6.24163 14.5527 6.41298 13.5314 6.67001 12.6804C6.92705 11.8293 7.35543 11.0634 7.8695 10.5527C8.46924 9.95697 9.15466 9.53144 10.0114 9.27612C10.9539 9.0208 11.982 8.85059 13.1815 8.85059H14.5524V11.9144H13.5242C13.0102 11.9144 12.4961 11.9995 12.0677 12.0846C11.6393 12.2548 11.2966 12.4251 10.9539 12.6804C10.6112 12.9357 10.4398 13.3612 10.2685 13.7868C10.0971 14.2123 10.0114 14.808 10.0114 15.4889V18.3825C10.0114 19.1485 9.92576 19.9144 9.84008 20.5102C9.66873 21.1059 9.49737 21.5314 9.24034 21.957C8.98331 22.3825 8.6406 22.6378 8.12653 22.8931C7.69815 23.0634 7.18408 23.2336 6.58434 23.3187C7.78382 23.4889 8.6406 23.9144 9.24034 24.6804C9.84008 25.4463 10.0971 26.6378 10.0971 28.2548V32.4251C10.0971 33.1059 10.1828 33.7016 10.3542 34.2123C10.5255 34.6378 10.7825 35.0634 11.0396 35.3187C11.3823 35.574 11.725 35.8293 12.1534 35.9144C12.5818 35.9995 13.0958 36.0846 13.6099 36.0846H14.638V39.2336H13.0958V39.3187Z" fill="black"/>
<path d="M34.7333 39.3187C37.0466 39.3187 38.7601 38.7229 39.8739 37.7017C40.9877 36.5953 41.5875 34.8931 41.5875 32.5102V28.3399C41.5875 27.2336 41.8445 26.3825 42.3586 25.7868C42.8726 25.191 43.7294 24.9357 44.9289 24.9357H45.957V21.7868H44.9289C44.3292 21.7868 43.8151 21.7016 43.3867 21.6165C42.9583 21.4463 42.6156 21.2761 42.3586 21.0208C42.1015 20.7655 41.9302 20.4251 41.7588 19.9995C41.6732 19.574 41.5875 19.0634 41.5875 18.5527V15.6591C41.5875 14.5527 41.4161 13.5314 41.1591 12.6804C40.9021 11.8293 40.4737 11.0634 39.9596 10.5527C39.3599 9.95697 38.6744 9.53144 37.8177 9.27612C36.8752 9.0208 35.8471 8.85059 34.6476 8.85059H33.2768V11.9144H34.3049C34.8189 11.9144 35.333 11.9995 35.7614 12.0846C36.1898 12.2548 36.5325 12.4251 36.8752 12.6804C37.2179 12.9357 37.3893 13.3612 37.5606 13.7868C37.732 14.2123 37.8177 14.808 37.8177 15.4889V18.3825C37.8177 19.1485 37.9033 19.9144 37.989 20.5102C38.1604 21.1059 38.3317 21.5314 38.5888 21.957C38.8458 22.3825 39.1885 22.6378 39.7026 22.8931C40.131 23.0634 40.645 23.2336 41.2448 23.3187C40.0453 23.4889 39.1885 23.9144 38.5888 24.6804C37.989 25.4463 37.732 26.6378 37.732 28.2548V32.4251C37.732 33.1059 37.6463 33.7016 37.475 34.2123C37.3036 34.6378 37.0466 35.0634 36.7895 35.3187C36.4468 35.574 36.1041 35.8293 35.6757 35.9144C35.2473 35.9995 34.7333 36.0846 34.2192 36.0846H33.1911V39.2336H34.7333V39.3187Z" fill="black"/>
</svg>
